<mxfile host="app.diagrams.net" modified="2021-11-05T02:43:02.448Z" agent="5.0 (X11; Linux x86_64) AppleWebKit/537.36 (KHTML, like Gecko) Chrome/95.0.4638.54 Safari/537.36" etag="FL1uLNuyWgQfZYZpueb4" version="15.6.8" type="github">
  <diagram id="C5RBs43oDa-KdzZeNtuy" name="Page-1">
    <mxGraphModel dx="1011" dy="570" grid="1" gridSize="10" guides="1" tooltips="1" connect="1" arrows="1" fold="1" page="1" pageScale="1" pageWidth="827" pageHeight="1169" math="0" shadow="0">
      <root>
        <mxCell id="WIyWlLk6GJQsqaUBKTNV-0" />
        <mxCell id="WIyWlLk6GJQsqaUBKTNV-1" parent="WIyWlLk6GJQsqaUBKTNV-0" />
        <mxCell id="nLsi4ikJNJFLobXEFV-X-2" value="" style="edgeStyle=orthogonalEdgeStyle;rounded=0;orthogonalLoop=1;jettySize=auto;html=1;" edge="1" parent="WIyWlLk6GJQsqaUBKTNV-1" source="nLsi4ikJNJFLobXEFV-X-0" target="nLsi4ikJNJFLobXEFV-X-1">
          <mxGeometry relative="1" as="geometry" />
        </mxCell>
        <mxCell id="nLsi4ikJNJFLobXEFV-X-0" value="Main" style="shape=process;whiteSpace=wrap;html=1;backgroundOutline=1;" vertex="1" parent="WIyWlLk6GJQsqaUBKTNV-1">
          <mxGeometry x="60" y="140" width="120" height="60" as="geometry" />
        </mxCell>
        <mxCell id="nLsi4ikJNJFLobXEFV-X-11" value="" style="edgeStyle=orthogonalEdgeStyle;rounded=0;orthogonalLoop=1;jettySize=auto;html=1;" edge="1" parent="WIyWlLk6GJQsqaUBKTNV-1" source="nLsi4ikJNJFLobXEFV-X-1" target="nLsi4ikJNJFLobXEFV-X-10">
          <mxGeometry relative="1" as="geometry" />
        </mxCell>
        <mxCell id="nLsi4ikJNJFLobXEFV-X-1" value="Read data" style="rhombus;whiteSpace=wrap;html=1;" vertex="1" parent="WIyWlLk6GJQsqaUBKTNV-1">
          <mxGeometry x="590" y="240" width="80" height="80" as="geometry" />
        </mxCell>
        <mxCell id="nLsi4ikJNJFLobXEFV-X-7" value="" style="edgeStyle=orthogonalEdgeStyle;rounded=0;orthogonalLoop=1;jettySize=auto;html=1;" edge="1" parent="WIyWlLk6GJQsqaUBKTNV-1" source="nLsi4ikJNJFLobXEFV-X-6" target="nLsi4ikJNJFLobXEFV-X-1">
          <mxGeometry relative="1" as="geometry" />
        </mxCell>
        <mxCell id="nLsi4ikJNJFLobXEFV-X-6" value="DT" style="rounded=1;whiteSpace=wrap;html=1;" vertex="1" parent="WIyWlLk6GJQsqaUBKTNV-1">
          <mxGeometry x="720" y="240" width="80" height="20" as="geometry" />
        </mxCell>
        <mxCell id="nLsi4ikJNJFLobXEFV-X-9" value="" style="edgeStyle=orthogonalEdgeStyle;rounded=0;orthogonalLoop=1;jettySize=auto;html=1;" edge="1" parent="WIyWlLk6GJQsqaUBKTNV-1" source="nLsi4ikJNJFLobXEFV-X-8" target="nLsi4ikJNJFLobXEFV-X-1">
          <mxGeometry relative="1" as="geometry" />
        </mxCell>
        <mxCell id="nLsi4ikJNJFLobXEFV-X-8" value="RHOB" style="rounded=1;whiteSpace=wrap;html=1;" vertex="1" parent="WIyWlLk6GJQsqaUBKTNV-1">
          <mxGeometry x="720" y="290" width="80" height="20" as="geometry" />
        </mxCell>
        <mxCell id="nLsi4ikJNJFLobXEFV-X-10" value="Well Tie" style="shape=process;whiteSpace=wrap;html=1;backgroundOutline=1;" vertex="1" parent="WIyWlLk6GJQsqaUBKTNV-1">
          <mxGeometry x="330" y="400" width="390" height="250" as="geometry" />
        </mxCell>
        <mxCell id="nLsi4ikJNJFLobXEFV-X-13" value="" style="edgeStyle=orthogonalEdgeStyle;rounded=0;orthogonalLoop=1;jettySize=auto;html=1;" edge="1" parent="WIyWlLk6GJQsqaUBKTNV-1" source="nLsi4ikJNJFLobXEFV-X-12" target="nLsi4ikJNJFLobXEFV-X-10">
          <mxGeometry relative="1" as="geometry" />
        </mxCell>
        <mxCell id="nLsi4ikJNJFLobXEFV-X-12" value="Imported Wavelet" style="rounded=1;whiteSpace=wrap;html=1;" vertex="1" parent="WIyWlLk6GJQsqaUBKTNV-1">
          <mxGeometry x="200" y="450" width="80" height="30" as="geometry" />
        </mxCell>
        <mxCell id="nLsi4ikJNJFLobXEFV-X-15" value="Band-Pass Wavelet" style="rounded=1;whiteSpace=wrap;html=1;" vertex="1" parent="WIyWlLk6GJQsqaUBKTNV-1">
          <mxGeometry x="390" y="520" width="80" height="30" as="geometry" />
        </mxCell>
        <mxCell id="nLsi4ikJNJFLobXEFV-X-16" value="Ricker Wavelet" style="rounded=1;whiteSpace=wrap;html=1;" vertex="1" parent="WIyWlLk6GJQsqaUBKTNV-1">
          <mxGeometry x="390" y="450" width="80" height="30" as="geometry" />
        </mxCell>
        <mxCell id="nLsi4ikJNJFLobXEFV-X-23" value="" style="edgeStyle=orthogonalEdgeStyle;rounded=0;orthogonalLoop=1;jettySize=auto;html=1;" edge="1" parent="WIyWlLk6GJQsqaUBKTNV-1" source="nLsi4ikJNJFLobXEFV-X-22" target="nLsi4ikJNJFLobXEFV-X-1">
          <mxGeometry relative="1" as="geometry" />
        </mxCell>
        <mxCell id="nLsi4ikJNJFLobXEFV-X-22" value="SEGY" style="rounded=1;whiteSpace=wrap;html=1;" vertex="1" parent="WIyWlLk6GJQsqaUBKTNV-1">
          <mxGeometry x="460" y="270" width="80" height="20" as="geometry" />
        </mxCell>
      </root>
    </mxGraphModel>
  </diagram>
</mxfile>
